HIERARCHY
ROOT Hips
{
	OFFSET 0.000000 0.000000 0.000000
	CHANNELS 6 Xposition Yposition Zposition Xrotation Yrotation Zrotation
	JOINT LeftUpLeg_virtual
	{
		OFFSET 0.000000 0.000000 0.000000
		CHANNELS 3 Xrotation Yrotation Zrotation
		JOINT LeftUpLeg
		{
			OFFSET 15.427100 -6.655098 0.678600
			CHANNELS 3 Xrotation Yrotation Zrotation
			JOINT LeftLeg
			{
				OFFSET 4.081073 -39.591068 13.024000
				CHANNELS 3 Xrotation Yrotation Zrotation
				JOINT LeftFoot
				{
					OFFSET -4.081074 -37.707932 -15.979700
					CHANNELS 3 Xrotation Yrotation Zrotation
					JOINT LeftToeBase
					{
						OFFSET 5.346399 -15.068900 20.645000
						CHANNELS 3 Xrotation Yrotation Zrotation
						JOINT LeftToe_End
						{
							OFFSET 2.754700 0.931300 11.300900
							CHANNELS 3 Xrotation Yrotation Zrotation
							End Site
							{
								OFFSET 0 0 0
							}
						}
					}
				}
			}
		}
	}
	JOINT RightUpLeg_virtual
	{
		OFFSET 0.000000 0.000000 0.000000
		CHANNELS 3 Xrotation Yrotation Zrotation
		JOINT RightUpLeg
		{
			OFFSET -15.569500 -6.655098 0.678600
			CHANNELS 3 Xrotation Yrotation Zrotation
			JOINT RightLeg
			{
				OFFSET -4.081825 -39.591045 13.023800
				CHANNELS 3 Xrotation Yrotation Zrotation
				JOINT RightFoot
				{
					OFFSET 4.081824 -37.707954 -15.979600
					CHANNELS 3 Xrotation Yrotation Zrotation
					JOINT RightToeBase
					{
						OFFSET -5.346400 -15.068900 20.645000
						CHANNELS 3 Xrotation Yrotation Zrotation
						JOINT RightToe_End
						{
							OFFSET -2.754700 0.931300 11.300900
							CHANNELS 3 Xrotation Yrotation Zrotation
							End Site
							{
								OFFSET 0 0 0
							}
						}
					}
				}
			}
		}
	}
	JOINT Spine_virtual
	{
		OFFSET 0.000000 0.000000 0.000000
		CHANNELS 3 Xrotation Yrotation Zrotation
		JOINT Spine
		{
			OFFSET -0.279200 12.230698 -2.892100
			CHANNELS 3 Xrotation Yrotation Zrotation
			JOINT Spine1
			{
				OFFSET -0.232667 10.192268 -1.242267
				CHANNELS 3 Xrotation Yrotation Zrotation
				JOINT Spine1_split
				{
					OFFSET -0.232667 10.192268 -1.242267
					CHANNELS 3 Xrotation Yrotation Zrotation
					JOINT Spine2
					{
						OFFSET -0.232667 10.192268 -1.242267
						CHANNELS 3 Xrotation Yrotation Zrotation
						JOINT Neck_virtual
						{
							OFFSET 0.000000 0.000000 0.000000
							CHANNELS 3 Xrotation Yrotation Zrotation
							JOINT Neck
							{
								OFFSET -0.418800 17.814194 8.416900
								CHANNELS 3 Xrotation Yrotation Zrotation
								JOINT Head
								{
									OFFSET 0.000000 7.031097 3.806800
									CHANNELS 3 Xrotation Yrotation Zrotation
									JOINT HeadTop_End
									{
										OFFSET 0.000000 24.646606 12.978600
										CHANNELS 3 Xrotation Yrotation Zrotation
										End Site
										{
											OFFSET 0 0 0
										}
									}
								}
							}
						}
						JOINT LeftShoulder_virtual
						{
							OFFSET 0.000000 0.000000 0.000000
							CHANNELS 3 Xrotation Yrotation Zrotation
							JOINT LeftShoulder
							{
								OFFSET 8.476499 7.247704 -3.868750
								CHANNELS 3 Xrotation Yrotation Zrotation
								JOINT LeftShoulder_split
								{
									OFFSET 8.476499 7.247704 -3.868750
									CHANNELS 3 Xrotation Yrotation Zrotation
									JOINT LeftArm
									{
										OFFSET 9.308998 -2.777710 0.208600
										CHANNELS 3 Xrotation Yrotation Zrotation
										JOINT LeftForeArm
										{
											OFFSET 29.972298 0.000000 0.000000
											CHANNELS 3 Xrotation Yrotation Zrotation
											JOINT LeftHand
											{
												OFFSET 26.026505 0.000000 0.000000
												CHANNELS 3 Xrotation Yrotation Zrotation
												End Site
												{
													OFFSET 0 0 0
												}
											}
										}
									}
								}
							}
						}
						JOINT RightShoulder_virtual
						{
							OFFSET 0.000000 0.000000 0.000000
							CHANNELS 3 Xrotation Yrotation Zrotation
							JOINT RightShoulder
							{
								OFFSET -7.570500 7.247704 -3.868750
								CHANNELS 3 Xrotation Yrotation Zrotation
								JOINT RightShoulder_split
								{
									OFFSET -7.570500 7.247704 -3.868750
									CHANNELS 3 Xrotation Yrotation Zrotation
									JOINT RightArm
									{
										OFFSET -9.308998 -2.777710 0.208500
										CHANNELS 3 Xrotation Yrotation Zrotation
										JOINT RightForeArm
										{
											OFFSET -29.972300 0.000000 0.000000
											CHANNELS 3 Xrotation Yrotation Zrotation
											JOINT RightHand
											{
												OFFSET -26.026505 0.000000 0.000000
												CHANNELS 3 Xrotation Yrotation Zrotation
												End Site
												{
													OFFSET 0 0 0
												}
											}
										}
									}
								}
							}
						}
					}
				}
			}
		}
	}
}
MOTION
Frames: 11
Frame Time: 0.03333333
0.828231 127.729843 9.723591 0.000000 0.000000 0.000000 10.409988 -7.558193 9.562784 -97.276401 -6.926828 17.925779 64.006208 -3.852967 -10.676544 16.403314 -14.505804 4.618597 -0.086445 -1.487697 1.191623 0.000000 0.000000 0.000000 9.246031 1.721372 8.588353 -85.243233 6.416843 -2.842724 111.895601 -2.698412 -6.176958 27.737122 11.373038 13.052766 16.033888 0.057155 -0.716328 0.000000 0.000000 0.000000 3.292549 -3.270335 12.058176 29.326093 -8.684078 -11.908770 0.749638 -3.571709 -2.120793 2.998747 -0.740226 0.659188 0.000000 0.000000 0.000000 3.642233 -1.876167 -1.331936 -22.630068 4.708788 6.192914 18.423049 3.916357 -18.833798 0.000000 0.000000 0.000000 2.786826 -2.152946 -1.119744 13.011376 -39.906780 33.035965 -4.187000 -0.435274 0.919434 -66.781628 14.976201 18.061194 -50.696345 -70.268733 -34.050306 0.000000 0.000000 0.000000 3.065496 -2.315421 -0.884340 1.239732 9.503246 -16.572990 4.690068 2.457506 -2.994202 -86.515424 -11.061396 -15.906570 -61.837254 67.126928 58.031903 0.000000 0.000000 0.000000 
-0.461282 127.294189 14.949554 0.000000 0.000000 0.000000 8.300019 -7.981073 9.680251 -96.064883 -6.689628 18.665946 61.511215 -3.629634 -10.916266 17.210299 -12.938279 6.319584 -0.666929 -1.167418 0.711670 0.000000 0.000000 0.000000 8.039186 -1.460849 9.264618 -83.431225 5.198711 -5.014740 109.545709 -2.618793 -5.104927 27.458045 9.897263 14.141128 13.920466 0.007447 -0.787591 0.000000 0.000000 0.000000 1.906887 -3.488331 11.276150 29.012349 -8.522612 -11.568741 0.391483 -3.345651 -2.422998 2.095871 -2.153448 0.777446 0.000000 0.000000 0.000000 3.601848 -1.756103 -1.665693 -22.639477 3.768492 7.334836 17.905295 4.652193 -19.486110 0.000000 0.000000 0.000000 2.519727 -1.997037 -1.503718 10.935269 -38.779365 30.175998 -3.472503 -1.778461 1.622897 -64.886647 13.917117 16.701293 -58.794453 -71.564523 -42.237658 0.000000 0.000000 0.000000 2.925405 -2.125399 -1.285848 0.763352 9.505812 -16.769431 5.568128 1.536691 -0.945484 -85.378451 -11.242833 -13.458986 -62.612180 66.786963 58.925770 0.000000 0.000000 0.000000 
-1.653012 126.801651 22.491980 0.000000 0.000000 0.000000 6.045257 -10.554432 10.237012 -90.700807 -7.119431 18.645435 54.390832 -2.311499 -11.050012 20.496626 -9.798551 6.904050 -1.135075 -0.672430 0.015852 0.000000 0.000000 0.000000 6.023700 -7.255849 10.329284 -77.255730 3.064437 -7.710140 101.657339 -2.566180 -4.315170 26.816026 6.738561 14.527228 14.712181 0.092292 -0.171766 0.000000 0.000000 0.000000 0.035872 -5.476448 10.627531 27.239373 -7.802423 -10.524905 0.534401 -3.026559 -3.368524 1.159005 -3.533916 1.376665 0.000000 0.000000 0.000000 4.183696 -1.686072 -2.636278 -22.165996 2.897275 9.713622 18.363414 5.917470 -19.997368 0.000000 0.000000 0.000000 2.948621 -1.877515 -2.526677 7.472883 -35.900738 25.106404 -2.674696 -2.759467 1.710091 -60.730777 10.620043 14.149887 -64.418608 -72.354038 -47.773007 0.000000 0.000000 0.000000 3.241488 -2.061752 -2.363475 0.406085 11.510069 -15.884742 5.529669 0.915207 0.424671 -82.689125 -12.388869 -11.363410 -66.628338 66.667496 62.913617 0.000000 0.000000 0.000000 
-2.435218 126.199295 31.197309 0.000000 0.000000 0.000000 3.452344 -14.604469 10.692448 -81.883894 -8.336988 18.370917 43.653163 -0.265453 -10.795802 25.852312 -5.798312 5.837828 -0.697453 -0.041727 -1.094633 0.000000 0.000000 0.000000 3.655021 -13.798831 11.120779 -66.951918 -0.048714 -10.137225 88.311764 -2.560796 -3.591249 26.563029 2.701017 13.959393 16.844414 0.286096 0.710636 0.000000 0.000000 0.000000 -2.455446 -9.320386 10.000307 24.376429 -6.659253 -8.717805 1.276474 -2.641117 -4.730711 1.238851 -4.486979 1.846280 0.000000 0.000000 0.000000 5.065989 -1.665836 -3.972844 -21.125143 2.208184 12.629168 19.441498 7.464741 -20.371287 0.000000 0.000000 0.000000 3.958905 -1.769347 -4.007847 3.526139 -31.555037 18.760925 -1.456435 -2.847268 1.736629 -55.468233 5.423285 10.960131 -64.567390 -72.348902 -47.614628 0.000000 0.000000 0.000000 3.971063 -2.048469 -3.905674 0.127391 15.056807 -14.276594 5.056760 0.933705 1.277916 -79.453255 -14.775851 -10.524313 -73.409268 66.592248 69.552083 0.000000 0.000000 0.000000 
-2.894275 124.987976 40.910229 0.000000 0.000000 0.000000 0.647210 -20.188610 10.836532 -70.928735 -10.311279 18.078432 31.495300 1.880142 -9.688400 32.132727 -2.208421 3.271696 0.451942 0.593131 -2.413715 0.000000 0.000000 0.000000 1.184698 -19.964073 11.298004 -54.411664 -4.042651 -12.088216 71.071363 -2.126550 -3.036560 27.086131 -0.312920 13.565872 16.916429 0.526588 1.177205 0.000000 0.000000 0.000000 -4.795402 -14.540602 9.181552 20.943798 -5.270815 -6.157303 2.474299 -2.118272 -6.222771 1.354068 -4.519832 1.892151 0.000000 0.000000 0.000000 6.104466 -1.518929 -5.404830 -19.747950 1.934578 15.198402 20.540254 9.204991 -20.680665 0.000000 0.000000 0.000000 5.195804 -1.526784 -5.641530 -0.023493 -26.491170 12.332824 -0.528103 -2.281566 2.244261 -50.619690 -0.397789 8.110875 -60.550406 -71.461141 -42.998766 0.000000 0.000000 0.000000 4.985280 -1.900450 -5.623779 -0.178832 19.407889 -12.356001 4.726318 1.810231 2.136287 -76.856471 -18.229500 -11.234608 -81.222663 66.264446 77.210323 0.000000 0.000000 0.000000 
-3.082766 122.508392 50.968170 0.000000 0.000000 0.000000 -2.277564 -26.910156 10.402869 -59.237828 -12.904504 18.186927 20.276164 3.054184 -7.597590 38.208625 -0.382895 -0.220609 0.895965 1.079210 -3.254983 0.000000 0.000000 0.000000 -1.244346 -25.835901 10.888249 -42.139904 -8.177160 -13.330811 53.442320 -1.182471 -2.394373 27.758763 -1.254132 13.989794 13.108225 0.659823 0.809239 0.000000 0.000000 0.000000 -6.693698 -21.186559 8.224006 17.621615 -3.792802 -3.246004 3.890878 -1.250768 -7.597780 1.217541 -3.906248 1.966355 0.000000 0.000000 0.000000 7.195339 -1.064495 -6.680248 -18.255106 2.240991 16.771581 21.013070 10.984301 -21.034870 0.000000 0.000000 0.000000 6.330046 -0.948470 -7.146343 -2.763860 -21.392883 6.577127 -0.295156 -1.218134 2.971517 -47.497159 -5.215774 5.823548 -57.818159 -70.567739 -39.508806 0.000000 0.000000 0.000000 6.014923 -1.428018 -7.229038 -0.610294 23.743519 -10.466682 4.711391 3.118739 3.115375 -76.238988 -21.784642 -13.488779 -87.235791 65.618802 83.108410 0.000000 0.000000 0.000000 
-3.140713 118.160431 61.361118 0.000000 0.000000 0.000000 -4.545540 -33.457402 9.643769 -48.522524 -15.437705 18.944240 12.020235 2.935517 -5.339419 42.714388 -0.893265 -3.704883 0.002244 1.340199 -3.208884 0.000000 0.000000 0.000000 -3.297913 -31.090116 10.268769 -32.136040 -11.936749 -14.092722 38.887884 0.204971 -1.520985 26.816931 -0.415204 15.032428 6.836811 0.688419 -0.600180 0.000000 0.000000 0.000000 -7.838850 -28.769426 7.407341 14.696825 -2.273764 -0.286299 5.159791 0.028118 -8.646954 0.891387 -2.833071 1.784843 0.000000 0.000000 0.000000 8.150863 -0.144046 -7.678029 -16.702615 3.058466 16.889929 20.491990 12.817959 -21.556630 0.000000 0.000000 0.000000 7.136280 0.171313 -8.285592 -4.681401 -16.816334 1.755231 -0.094850 -0.153029 3.154427 -46.114555 -7.427261 3.750608 -60.470274 -70.638158 -41.433475 0.000000 0.000000 0.000000 6.857912 -0.433972 -8.467012 -1.249833 27.341053 -8.756583 4.519460 4.109674 4.204821 -77.976773 -24.290786 -16.888372 -90.541479 65.028565 86.309685 0.000000 0.000000 0.000000 
-3.085517 111.619461 71.520134 0.000000 0.000000 0.000000 -5.669191 -40.003663 8.947843 -40.123499 -17.276443 20.211500 7.798052 1.999094 -3.404266 44.827454 -3.165787 -6.695895 -1.660533 1.363728 -2.451538 0.000000 0.000000 0.000000 -5.063980 -36.977968 9.600057 -25.989372 -14.838757 -14.604268 30.358617 1.358895 -0.307305 22.091617 0.688673 15.212023 1.824986 0.812312 -2.599370 0.000000 0.000000 0.000000 -7.444655 -36.695273 7.289155 12.412444 -0.862478 2.271382 5.925736 1.703686 -9.231047 0.452813 -1.868393 1.653280 0.000000 0.000000 0.000000 8.958363 1.256462 -8.346288 -15.252110 4.336070 15.633162 19.018522 14.608742 -22.127124 0.000000 0.000000 0.000000 7.497222 1.801613 -8.924021 -5.923875 -13.290676 -1.873177 0.112860 0.863520 2.456646 -45.697838 -5.362898 1.937100 -70.462765 -71.833824 -50.919316 0.000000 0.000000 0.000000 7.421899 1.071880 -9.200775 -2.137049 29.655711 -7.017842 3.974733 5.015527 4.917261 -80.995382 -24.527331 -20.205264 -91.932270 64.937265 87.588625 0.000000 0.000000 0.000000 
-2.785980 103.186775 81.330795 0.000000 0.000000 0.000000 -5.215965 -46.657299 9.048825 -34.522088 -18.374198 21.995115 8.240181 0.991166 -2.229604 44.101200 -5.854191 -9.300110 -3.073248 1.208755 -1.635002 0.000000 0.000000 0.000000 -6.248441 -43.586033 9.212182 -24.288706 -16.256357 -15.306087 29.523042 1.417487 0.993647 12.843893 0.349985 12.829108 0.201472 0.958844 -4.321643 0.000000 0.000000 0.000000 -5.543799 -44.217173 8.418160 11.024868 0.322272 3.902720 6.067676 3.543500 -9.290699 0.670514 -1.937163 1.791522 0.000000 0.000000 0.000000 9.418901 2.977829 -8.645351 -14.026887 5.932257 13.415400 17.013871 16.003253 -22.558655 0.000000 0.000000 0.000000 7.497766 3.677024 -9.049088 -6.612203 -11.151074 -4.379297 0.486562 1.714221 1.664418 -45.483244 0.647364 0.261766 -87.593208 -72.901942 -67.897988 0.000000 0.000000 0.000000 7.685874 2.868237 -9.388340 -3.153956 30.525147 -4.957398 2.902121 5.989347 5.361021 -83.431724 -22.803881 -22.095671 -92.410581 65.486180 88.022915 0.000000 0.000000 0.000000 
-2.318314 93.321465 90.701355 0.000000 0.000000 0.000000 -3.213761 -52.564408 10.485575 -31.572239 -19.415812 24.308437 12.754818 0.984232 -2.256436 39.383335 -7.247367 -11.618136 -3.129205 1.080567 -1.486520 0.000000 0.000000 0.000000 -6.245313 -50.066451 9.864221 -26.972955 -15.374056 -16.787632 35.738145 0.695299 2.151721 0.302981 -0.779057 8.136257 1.689771 0.915885 -5.267561 0.000000 0.000000 0.000000 -1.861297 -50.932266 11.224326 10.739690 1.299570 4.333244 5.652372 5.191760 -8.845442 0.838949 -2.618070 1.588534 0.000000 0.000000 0.000000 9.367743 4.729965 -8.581841 -13.141993 7.618258 10.668321 15.029087 17.195613 -22.896848 0.000000 0.000000 0.000000 7.187871 5.443046 -8.698914 -6.798857 -10.740985 -5.860541 1.044126 2.679334 0.377987 -44.931337 9.341452 -1.174310 -103.172384 -72.561450 -83.678458 0.000000 0.000000 0.000000 7.690584 4.654803 -9.020710 -4.081102 30.226172 -2.236592 1.335504 6.727970 5.015824 -83.814747 -20.527671 -21.837609 -91.823718 66.509493 87.476384 0.000000 0.000000 0.000000 
-1.401488 82.874176 99.137833 0.000000 0.000000 0.000000 -0.065297 -57.493589 13.356553 -30.604999 -21.089705 27.285557 20.391391 2.162077 -3.956943 30.439626 -6.567487 -13.845772 -2.235788 1.044316 -2.220660 0.000000 0.000000 0.000000 -4.551005 -55.723057 12.025432 -33.462593 -11.122756 -19.310511 47.818226 0.684278 3.198056 -12.336986 -1.194722 3.484411 4.687294 0.681708 -5.131023 0.000000 0.000000 0.000000 3.087988 -56.492819 15.586854 11.718162 1.980868 3.292744 4.865203 6.367586 -7.971370 0.874641 -3.312103 1.475534 0.000000 0.000000 0.000000 8.692106 6.188363 -8.071449 -12.625962 9.287406 7.865724 13.375432 18.273314 -23.133890 0.000000 0.000000 0.000000 6.710786 6.712342 -7.894492 -6.434062 -11.851728 -6.583035 0.873098 3.752913 -1.096707 -43.654198 18.534227 -2.825548 -111.559659 -72.002980 -92.614756 0.000000 0.000000 0.000000 7.454343 6.095438 -8.154814 -4.635801 29.283818 1.111444 -0.160425 7.079182 3.610123 -81.530138 -18.856535 -19.044618 -89.373141 67.743770 85.161654 0.000000 0.000000 0.000000 
